<svg xmlns="http://www.w3.org/2000/svg" viewBox="0 0 141.61 97.69"><defs><style>.cls-1,.cls-2{fill:#df0c00;}.cls-2{font-size:24.37px;font-family:Aller-Bold, Aller;font-weight:700;}</style></defs><title>Logo new color</title><g id="Layer_2" data-name="Layer 2"><g id="Layer_2-2" data-name="Layer 2"><path class="cls-1" d="M42,0H3A2.23,2.23,0,0,0,.8,2.21,2.22,2.22,0,0,0,3,4.42H36.5c.91.08,2.5.57,2.5,3V30a2.7,2.7,0,0,1-2,2.37H35.63l-.18,0,0,0h-29A5.67,5.67,0,0,0,.8,38V59.27a5.67,5.67,0,0,0,5.66,5.66H38.57a5.67,5.67,0,0,0,5.66-5.66V2.21A2.22,2.22,0,0,0,42,0ZM39,50.46v4.89A5.67,5.67,0,0,1,33.34,61H11.69A5.67,5.67,0,0,1,6,55.35V42a5.67,5.67,0,0,1,5.66-5.66H33.34A5.67,5.67,0,0,1,39,42Z"/><path class="cls-1" d="M137.31,0h-39a2.23,2.23,0,0,0-2.22,2.21,2.22,2.22,0,0,0,2.22,2.21h33.48c.91.08,2.5.57,2.5,3V30a2.7,2.7,0,0,1-2,2.37h-1.34l-.18,0,0,0h-29A5.67,5.67,0,0,0,96.09,38V59.27a5.67,5.67,0,0,0,5.66,5.66h32.11a5.67,5.67,0,0,0,5.66-5.66V2.21A2.22,2.22,0,0,0,137.31,0Zm-3,50.46v4.89A5.67,5.67,0,0,1,128.63,61H107a5.67,5.67,0,0,1-5.66-5.66V42A5.67,5.67,0,0,1,107,36.29h21.65A5.67,5.67,0,0,1,134.29,42Z"/><path class="cls-1" d="M88.39,0H50.87a2.63,2.63,0,0,0-2.62,2.62V62.31a2.63,2.63,0,0,0,2.62,2.62h.79a2.63,2.63,0,0,0,2.62-2.62v-52S54.68,6,57.9,6H88.39a2.69,2.69,0,0,0,2.68-2.68V2.68A2.69,2.69,0,0,0,88.39,0Z"/><text class="cls-2" transform="translate(0 91.62) scale(1.47 1)">DESIGNS</text></g></g></svg>